<svg width="25" height="24" viewBox="0 0 25 24" fill="none" xmlns="http://www.w3.org/2000/svg">
<path d="M19.4999 3.00006C19.2192 2.68621 18.8755 2.43497 18.4913 2.26268C18.1071 2.09039 17.6909 2.00091 17.2699 2.00006H7.72988C7.30654 1.99749 6.88745 2.08454 6.50016 2.25551C6.11287 2.42647 5.76615 2.67747 5.48279 2.992C5.19943 3.30653 4.98584 3.67747 4.85608 4.08044C4.72631 4.48341 4.68331 4.90928 4.72988 5.33006L6.28988 19.3301C6.37145 20.0672 6.72318 20.748 7.2772 21.2411C7.83122 21.7342 8.54824 22.0046 9.28988 22.0001H15.7099C16.4515 22.0046 17.1685 21.7342 17.7226 21.2411C18.2766 20.748 18.6283 20.0672 18.7099 19.3301L20.2699 5.33006C20.313 4.90935 20.2667 4.48428 20.134 4.08272C20.0013 3.68117 19.7852 3.31221 19.4999 3.00006ZM16.6999 19.1101C16.6727 19.3558 16.5554 19.5827 16.3708 19.7471C16.1861 19.9114 15.9471 20.0016 15.6999 20.0001H9.28988C9.04267 20.0016 8.80366 19.9114 8.61899 19.7471C8.43432 19.5827 8.31707 19.3558 8.28988 19.1101L7.27988 10.0001H17.7199L16.6999 19.1101ZM17.9399 8.00006H7.05988L6.73988 5.11006C6.72413 4.96976 6.73827 4.82772 6.78136 4.69328C6.82445 4.55885 6.89551 4.43506 6.98988 4.33006C7.08338 4.22646 7.19752 4.14358 7.32496 4.08675C7.45241 4.02992 7.59034 4.00039 7.72988 4.00006H17.2699C17.4094 4.00039 17.5474 4.02992 17.6748 4.08675C17.8022 4.14358 17.9164 4.22646 18.0099 4.33006C18.1042 4.43506 18.1753 4.55885 18.2184 4.69328C18.2615 4.82772 18.2756 4.96976 18.2599 5.11006L17.9399 8.00006ZM14.4999 18.0001C14.7651 18.0001 15.0195 17.8947 15.207 17.7072C15.3945 17.5196 15.4999 17.2653 15.4999 17.0001V13.0001C15.4999 12.7348 15.3945 12.4805 15.207 12.2929C15.0195 12.1054 14.7651 12.0001 14.4999 12.0001C14.2347 12.0001 13.9803 12.1054 13.7928 12.2929C13.6052 12.4805 13.4999 12.7348 13.4999 13.0001V17.0001C13.4999 17.2653 13.6052 17.5196 13.7928 17.7072C13.9803 17.8947 14.2347 18.0001 14.4999 18.0001ZM10.4999 18.0001C10.7651 18.0001 11.0195 17.8947 11.207 17.7072C11.3945 17.5196 11.4999 17.2653 11.4999 17.0001V13.0001C11.4999 12.7348 11.3945 12.4805 11.207 12.2929C11.0195 12.1054 10.7651 12.0001 10.4999 12.0001C10.2347 12.0001 9.98031 12.1054 9.79278 12.2929C9.60524 12.4805 9.49988 12.7348 9.49988 13.0001V17.0001C9.49988 17.2653 9.60524 17.5196 9.79278 17.7072C9.98031 17.8947 10.2347 18.0001 10.4999 18.0001Z" fill="#496A54"/>
</svg>
