<svg width="186" height="124" viewBox="0 0 186 124" fill="none" xmlns="http://www.w3.org/2000/svg">
<path d="M8.68854 66.3636C8.98534 68.9152 9.4511 71.4349 10.0675 73.9138C10.0767 74.6824 10.0858 75.4602 10.0675 76.247C8.89402 76.2288 7.54241 76.8974 6.69766 77.4023C4.5424 78.6895 3.28668 81.2547 2.96704 85.0343C2.92138 85.5665 2.88942 86.1032 2.85746 86.6399C2.7296 88.8003 2.60631 90.8425 1.6748 92.5936C1.25014 93.385 0.665663 94.0854 0.204473 94.6039C-0.0603687 94.9041 -0.0695012 95.3498 0.186208 95.6591C0.441917 95.9684 0.884842 96.0457 1.22731 95.8411C5.99446 93.0439 9.51503 88.3728 10.8895 83.0331C11.2365 81.6822 11.442 80.3086 11.5607 78.9305C12.3963 81.3593 13.3872 83.729 14.5242 86.0349C14.7251 86.7081 14.8758 87.363 14.9762 88.0089C14.442 87.9862 13.8803 88.1363 13.3918 88.4637C12.7068 88.9186 12.273 89.5963 11.9443 90.1966C10.6155 92.6163 10.0173 95.3089 9.4374 97.9151C9.00817 99.8572 8.56068 101.863 7.81639 103.691C7.67483 104.037 7.78899 104.437 8.09493 104.656C8.40086 104.874 8.81639 104.856 9.0995 104.615C13.9762 100.462 16.6384 95.2998 16.7205 90.1693C16.7525 90.2012 16.7845 90.233 16.821 90.2648C17.8073 91.9113 18.8667 93.5123 20.0082 95.0633C20.1498 95.2543 20.3096 95.4363 20.4512 95.6273C18.9032 96.3868 17.7662 98.0015 17.3918 100.039C17.0813 101.713 17.2822 103.387 17.4785 105.001L17.5196 105.333C17.8849 108.39 18.1041 111.501 18.1772 114.585C18.1863 114.939 18.4283 115.249 18.7708 115.349C19.1133 115.444 19.4831 115.308 19.6749 115.008C20.4831 113.766 21.0128 112.379 21.4466 111.178C22.2092 109.067 23.1224 106.27 23.4101 103.373C23.474 102.732 23.506 102.099 23.506 101.481C23.506 100.676 23.4329 99.8981 23.3233 99.1386C24.7115 100.712 26.159 102.227 27.7023 103.646C27.2138 107.94 27.264 112.288 27.8667 116.572C28.1087 118.305 28.4649 120.133 29.3736 121.771C29.5562 122.103 29.9489 122.262 30.3142 122.157C30.6795 122.053 30.9215 121.707 30.9033 121.334C30.8119 119.674 30.8713 117.991 31.0677 116.336C31.1453 115.713 31.2366 115.094 31.3325 114.471C31.5471 113.093 31.7617 111.669 31.7617 110.223C31.7617 110.141 31.7617 110.059 31.7617 109.977C31.7389 108.735 31.5288 107.594 31.1544 106.584C32.2686 107.466 33.4193 108.303 34.5928 109.104C35.0448 110.587 35.2823 112.115 35.5289 113.725C35.6476 114.516 35.7663 115.312 35.917 116.099C36.3051 118.178 37.0631 121.189 39.1499 123.358C39.328 123.54 39.8622 124.1 40.6157 123.986C40.9718 123.931 41.2504 123.654 41.3006 123.304C41.3828 122.758 41.4147 122.207 41.4147 121.68C41.4147 120.975 41.36 120.315 41.3006 119.756C41.0449 117.318 40.5152 114.907 39.7252 112.588C39.6796 112.447 39.6248 112.301 39.57 112.156C40.7115 112.783 41.8714 113.375 43.054 113.93C43.981 115.99 45.3782 117.004 47.1819 117.837C49.255 118.796 51.4742 119.187 53.6249 119.574C54.0176 119.642 54.4057 119.419 54.5381 119.042C54.5701 118.955 54.5838 118.864 54.5838 118.774C54.5838 118.482 54.4239 118.205 54.1545 118.059C53.2048 117.55 52.3691 116.859 51.4787 116.126C50.8669 115.622 50.2321 115.099 49.5518 114.635L48.9719 114.23C47.4467 113.152 45.5518 111.837 43.5198 112.356C42.3417 111.796 41.1819 111.201 40.0449 110.564C42.9581 110.982 45.9673 110.796 48.7618 109.973C49.0769 109.882 49.3052 109.609 49.3417 109.281C49.3417 109.249 49.3463 109.222 49.3463 109.19C49.3463 108.899 49.1865 108.626 48.9262 108.481C44.9718 106.288 40.2138 105.775 35.8805 107.066C35.5563 107.162 35.3051 107.316 35.0905 107.494C33.1453 106.138 31.2914 104.665 29.5243 103.086C33.8439 105.06 37.9398 105.638 41.4147 104.715C41.7161 104.633 41.9444 104.392 42.0038 104.083C42.0129 104.033 42.0175 103.978 42.0175 103.928C42.0175 103.673 41.8988 103.432 41.6933 103.278C36.949 99.7298 30.8439 97.9878 24.9352 98.5018C23.9946 97.4557 23.0904 96.3778 22.2274 95.2634C22.2274 95.2634 22.2274 95.2634 22.2274 95.2589C22.1726 95.1452 22.095 95.0542 22.0037 94.9814C21.7754 94.6858 21.5334 94.4038 21.3142 94.1036C20.926 93.576 20.5744 93.0257 20.2 92.4844C20.7708 92.7482 21.3507 92.9893 21.9261 93.2167C26.0265 94.8586 30.7891 96.5097 35.4147 95.3316C35.8896 95.2088 36.4421 95.036 36.9261 94.6812C37.1134 94.5448 37.2321 94.3356 37.2503 94.1036C37.2503 94.0809 37.2503 94.0536 37.2503 94.0308C37.2503 93.8262 37.1727 93.626 37.0312 93.4759C36.0175 92.3935 34.5791 92.0205 33.3051 91.6885L32.7663 91.5475C31.1362 91.1017 29.5151 90.424 27.9489 89.7645C25.5197 88.7457 23.0082 87.686 20.2913 87.4176C19.5333 87.3403 18.5562 87.3221 17.7616 87.8315C17.6749 87.8588 17.4557 87.8452 17.2822 87.827C16.0036 85.5255 14.8804 83.1422 13.926 80.6907C14.3872 80.9727 14.8438 81.2092 15.2411 81.4093L15.5699 81.5776C20.1041 83.9336 25.2046 85.0389 30.3142 84.7705C31.8804 84.6887 34.191 84.443 36.1499 83.2696C36.401 83.1195 36.5471 82.8511 36.5471 82.5737C36.5471 82.4873 36.5334 82.4009 36.506 82.3144C36.3828 81.9506 36.022 81.7232 35.643 81.7686C32.8713 82.0825 30.1087 80.8317 27.401 79.6082C24.4786 78.2847 21.3598 77.043 18.2046 77.6115C16.9854 77.8298 15.7342 78.4984 15.2 79.5536C14.1498 78.9715 13.0219 78.171 12.5881 76.861C12.2639 75.8195 11.9534 74.7734 11.6886 73.7136C11.6886 73.6954 11.6886 73.6818 11.6886 73.6636C11.6886 73.5362 11.652 73.4225 11.5972 73.3179C11.0219 70.971 10.579 68.5877 10.2959 66.1771C10.2456 65.7314 9.83923 65.413 9.39174 65.463C8.94425 65.5176 8.62004 65.9315 8.67484 66.3636L8.68854 66.3636ZM3.70221 91.9887C4.27755 90.2967 4.38258 88.491 4.4876 86.7354C4.51956 86.2078 4.55153 85.6847 4.59262 85.1662C4.8666 81.9415 5.85747 79.7947 7.53328 78.7941C8.57895 78.171 9.49676 77.8708 10.0036 77.8617C9.90772 79.4718 9.70681 81.0773 9.30498 82.6328C8.3826 86.226 6.40542 89.4871 3.69764 91.9887L3.70221 91.9887ZM21.7936 103.214C21.5197 105.934 20.6475 108.604 19.9169 110.628C19.8393 110.837 19.7617 111.055 19.6795 111.273C19.5607 109.222 19.3827 107.171 19.1406 105.142L19.0996 104.806C18.9123 103.241 18.7343 101.763 18.9991 100.33C19.2183 99.1295 19.9123 97.6649 21.2 97.0554C21.8119 98.8748 22.0174 100.981 21.7936 103.214ZM30.1407 110.009C30.1681 111.396 29.9535 112.774 29.7298 114.225C29.6339 114.857 29.5334 115.49 29.4603 116.126C29.0083 112.793 28.8941 109.418 29.1224 106.066C29.9535 107.416 30.127 109.027 30.1407 110.009ZM38.1864 113.12C38.9398 115.326 39.4467 117.614 39.6841 119.929C39.7344 120.425 39.7846 121.002 39.7892 121.612C38.7298 120.238 37.9992 118.369 37.5243 115.808C37.3828 115.039 37.264 114.266 37.1499 113.493C36.9992 112.492 36.8439 111.469 36.6339 110.455C37.2412 110.937 37.7344 111.792 38.191 113.12L38.1864 113.12ZM48.0404 115.558L48.6385 115.972C49.1865 116.349 49.707 116.768 50.2413 117.209C49.4285 116.986 48.634 116.718 47.876 116.367C46.5152 115.74 45.675 115.089 45.0632 114.189C45.1043 114.139 45.1499 114.089 45.1773 114.03C45.1865 114.011 45.1773 113.993 45.1865 113.98C46.1225 114.234 47.0906 114.889 48.0404 115.558ZM46.0038 108.936C43.1682 109.386 40.2047 109.181 37.4604 108.344C40.2732 107.744 43.2915 107.958 46.0038 108.936ZM39.1088 103.478C35.4741 103.805 31.8485 102.472 29.2823 101.181C28.5791 100.826 27.885 100.444 27.2046 100.039C31.3827 100.08 35.5563 101.285 39.1088 103.478ZM20.1452 89.0323C22.6156 89.2779 24.9078 90.2421 27.3325 91.2609C28.9489 91.9432 30.6202 92.6436 32.3553 93.1166L32.9124 93.2622C33.5563 93.4305 34.1864 93.5942 34.7298 93.8307C30.6704 94.7404 26.3188 93.2212 22.5471 91.7112C20.9397 91.0699 19.4009 90.3968 18.2502 89.387C18.3827 89.3461 18.5105 89.2915 18.6338 89.2142C19.0356 88.9595 19.6566 88.9822 20.1498 89.0323L20.1452 89.0323ZM18.5059 79.208C21.2 78.7213 23.9352 79.8174 26.7663 81.1001C28.3233 81.8005 29.9946 82.56 31.7389 83.0149C31.2731 83.074 30.7754 83.1195 30.2412 83.1513C25.5471 83.3969 20.8576 82.4145 16.6612 80.3041C16.9215 79.7538 17.7251 79.349 18.5059 79.208ZM11.0264 98.2698C11.6064 95.6637 12.1543 93.1985 13.3735 90.9835C13.6064 90.5559 13.9032 90.0829 14.2959 89.8191C14.5698 89.6372 14.9123 89.5872 15.1269 89.6872C15.2548 94.5675 12.684 98.5518 10.3552 101.131C10.6064 100.176 10.821 99.2159 11.031 98.2698L11.0264 98.2698Z" fill="#496A54"/>
<path d="M109.438 2.28735L109.438 3.91109L67.3375 3.9111C62.4151 3.9111 57.4835 4.56149 52.6798 5.83502C29.8578 11.8842 13.3691 30.887 10.6796 54.2561L9.05859 54.0696C11.8257 30.0365 28.7847 10.4879 52.2597 4.26586C57.2004 2.95596 62.2689 2.2919 67.3329 2.28735L109.434 2.28735L109.438 2.28735Z" fill="#866654"/>
<path d="M145.379 0.0230135C145.023 0.0775942 144.744 0.355037 144.694 0.705257C144.502 1.98787 144.593 3.27505 144.694 4.25293C144.95 6.69081 145.479 9.1014 146.269 11.421C146.315 11.562 146.37 11.7076 146.425 11.8531C145.283 11.2255 144.123 10.6342 142.94 10.0793C142.014 8.01891 140.616 7.00465 138.813 6.17231C136.749 5.21717 134.525 4.82146 132.37 4.43486C131.977 4.36663 131.589 4.58949 131.456 4.967C131.329 5.34451 131.484 5.7584 131.84 5.94943C132.785 6.45884 133.625 7.15018 134.511 7.88245C135.123 8.38731 135.758 8.91037 136.438 9.37884L137.014 9.7791C138.543 10.857 140.434 12.176 142.47 11.6575C143.648 12.217 144.808 12.8128 145.945 13.4496C143.032 13.0311 140.023 13.2176 137.228 14.0454C136.913 14.1364 136.685 14.4093 136.648 14.7367C136.612 15.0597 136.776 15.378 137.064 15.5372C141.018 17.7295 145.772 18.2435 150.109 16.9517C150.434 16.8562 150.685 16.7016 150.895 16.5242C152.84 17.8796 154.694 19.3532 156.461 20.9315C152.141 18.9575 148.046 18.3799 144.571 19.3032C144.269 19.3851 144.041 19.6261 143.982 19.9354C143.922 20.2402 144.041 20.554 144.292 20.7405C149.036 24.2881 155.141 26.0256 161.05 25.5162C161.991 26.5623 162.895 27.6402 163.758 28.7546C163.808 28.8683 163.89 28.9592 163.977 29.032C164.205 29.3276 164.447 29.6096 164.671 29.9098C165.059 30.4374 165.411 30.9878 165.785 31.529C165.215 31.2652 164.635 31.0242 164.059 30.7922C159.954 29.1548 155.192 27.5038 150.575 28.6772C150.1 28.8 149.548 28.9683 149.064 29.3276C148.877 29.4641 148.758 29.6779 148.74 29.9053C148.721 30.1463 148.799 30.3646 148.954 30.5329C149.968 31.6154 151.411 31.9884 152.685 32.3204L153.215 32.4614C154.845 32.9071 156.466 33.5848 158.036 34.2443C160.466 35.2632 162.977 36.3229 165.694 36.5913C166.452 36.6686 167.434 36.6868 168.224 36.1774C168.31 36.1501 168.53 36.1637 168.703 36.1819C169.982 38.4833 171.105 40.8712 172.059 43.3182C171.598 43.0362 171.142 42.8042 170.749 42.5995L170.416 42.4313C165.881 40.0752 160.781 38.97 155.671 39.2384C154.105 39.3202 151.794 39.5658 149.836 40.7393C149.507 40.9349 149.361 41.3306 149.484 41.6944C149.607 42.0583 149.968 42.2857 150.347 42.2402C153.119 41.9264 155.886 43.1817 158.589 44.4007C161.511 45.7242 164.63 46.9659 167.781 46.3974C169 46.179 170.251 45.5105 170.785 44.4507C171.84 45.0329 172.968 45.8334 173.397 47.1478C173.721 48.1894 174.032 49.2355 174.297 50.2952C174.297 50.3134 174.297 50.3271 174.297 50.3453C174.297 50.4726 174.333 50.5863 174.388 50.691C174.963 53.0379 175.406 55.4212 175.69 57.8318C175.74 58.2775 176.146 58.5959 176.594 58.5458C177.009 58.4958 177.315 58.1456 177.315 57.7408C177.315 57.709 177.315 57.6771 177.311 57.6453C177.014 55.0982 176.548 52.5739 175.932 50.0951C175.918 49.3265 175.913 48.5487 175.932 47.7619C177.105 47.78 178.457 47.1115 179.301 46.6066C181.457 45.3194 182.712 42.7542 183.032 38.9746C183.078 38.4424 183.11 37.9012 183.142 37.3645C183.269 35.204 183.393 33.1664 184.324 31.4153C184.653 30.7967 185.11 30.1782 185.795 29.405C185.932 29.2503 186 29.0593 186 28.8683C186 28.6772 185.936 28.5044 185.813 28.3498C185.557 28.0405 185.114 27.9632 184.772 28.1678C180.005 30.965 176.484 35.6316 175.11 40.9713C174.763 42.3221 174.557 43.6957 174.438 45.0738C173.603 42.645 172.612 40.2754 171.475 37.9694C171.269 37.2962 171.123 36.6367 171.023 35.9909C171.557 36.0136 172.119 35.8635 172.607 35.5361C173.292 35.0812 173.726 34.4035 174.055 33.8032C175.384 31.3835 175.982 28.6909 176.562 26.0847C176.991 24.1471 177.438 22.1413 178.183 20.3129C178.224 20.2129 178.242 20.1128 178.242 20.0082C178.242 19.7535 178.119 19.5079 177.904 19.3487C177.598 19.1304 177.183 19.1486 176.9 19.3896C172.023 23.5422 169.365 28.7091 169.283 33.8395C169.251 33.8032 169.215 33.7713 169.178 33.7395C168.196 32.093 167.132 30.492 165.991 28.941C165.849 28.75 165.689 28.5681 165.548 28.377C167.096 27.6175 168.228 26.0028 168.607 23.9652C168.721 23.3421 168.767 22.7144 168.767 22.0959C168.767 21.0543 168.644 20.0173 168.521 19.0076L168.479 18.671C168.114 15.61 167.895 12.499 167.822 9.41978C167.813 9.06501 167.571 8.75573 167.228 8.65567C166.886 8.56015 166.516 8.6966 166.324 8.99679C165.521 10.2339 164.986 11.6257 164.552 12.8264C163.79 14.9414 162.877 17.7341 162.589 20.6313C162.443 22.0959 162.466 23.5104 162.653 24.843C161.274 23.2784 159.831 21.7729 158.297 20.3584C158.516 18.4345 158.63 16.5015 158.63 14.5684C158.63 12.1851 158.461 9.79729 158.128 7.43218C157.886 5.69928 157.53 3.87087 156.621 2.23349C156.438 1.90146 156.046 1.74227 155.68 1.84688C155.315 1.95149 155.068 2.26077 155.091 2.67012C155.183 4.33479 155.128 6.01766 154.927 7.66869C154.849 8.29181 154.753 8.91492 154.662 9.53804C154.438 10.9935 154.21 12.4944 154.233 14.0272C154.256 15.2689 154.466 16.4105 154.84 17.4157C153.726 16.5333 152.575 15.6964 151.402 14.8959C150.95 13.4132 150.712 11.8895 150.47 10.2749C150.351 9.47891 150.233 8.68751 150.082 7.90065C149.694 5.82663 148.941 2.81566 146.854 0.646125C146.68 0.464195 146.141 -0.0952346 145.383 0.013923L145.379 0.0230135ZM165.858 34.9812C163.388 34.7356 161.096 33.7713 158.671 32.7525C157.055 32.0748 155.383 31.3698 153.648 30.8968L153.1 30.7513C152.452 30.583 151.826 30.4192 151.278 30.1827C155.338 29.2731 159.689 30.7922 163.461 32.3022C165.068 32.9435 166.607 33.6167 167.758 34.6264C167.626 34.6673 167.498 34.7219 167.374 34.7992C166.973 35.0539 166.352 35.0312 165.858 34.9812ZM167.498 44.81C164.804 45.2967 162.068 44.2005 159.242 42.9225C157.685 42.2175 156.014 41.4625 154.269 41.0031C154.735 40.9394 155.233 40.8985 155.767 40.8666C160.466 40.621 165.151 41.6035 169.347 43.7139C169.087 44.2642 168.283 44.669 167.502 44.81L167.498 44.81ZM182.301 32.0248C181.731 33.7167 181.621 35.5179 181.516 37.2735C181.484 37.8011 181.452 38.3242 181.411 38.8427C181.142 42.0674 180.151 44.2142 178.47 45.2148C177.425 45.8379 176.507 46.1381 176 46.1472C176.096 44.5417 176.297 42.9316 176.699 41.3761C177.621 37.7875 179.598 34.5263 182.306 32.0202L182.301 32.0248ZM175.648 22.8827C175.397 23.8379 175.187 24.7975 174.973 25.7436C174.393 28.3543 173.845 30.8149 172.626 33.0345C172.388 33.462 172.096 33.9351 171.703 34.1989C171.429 34.3808 171.087 34.4308 170.872 34.3308C170.744 29.4368 173.315 25.4661 175.644 22.8873L175.648 22.8827ZM164.21 20.7996C164.484 18.0979 165.31 15.5327 166.087 13.3859C166.164 13.1767 166.242 12.9583 166.324 12.74C166.443 14.7913 166.621 16.8426 166.863 18.8711L166.904 19.2122C167.091 20.7769 167.269 22.255 167.005 23.6832C166.785 24.884 166.087 26.3485 164.804 26.958C164.192 25.1387 163.986 23.0374 164.21 20.7996ZM155.863 14.0045C155.831 12.6172 156.05 11.2436 156.274 9.79274C156.37 9.15598 156.47 8.52377 156.548 7.88701C157 11.2209 157.119 14.5912 156.886 17.9478C156.055 16.597 155.881 14.9869 155.863 14.0045ZM137.963 8.45554L137.37 8.04165C136.822 7.66414 136.306 7.25024 135.767 6.80451C136.58 7.02738 137.379 7.29573 138.132 7.64595C139.493 8.27361 140.333 8.92401 140.945 9.82458C140.904 9.87461 140.858 9.92464 140.831 9.98377C140.822 10.002 140.826 10.0156 140.822 10.0338C139.881 9.77909 138.913 9.11959 137.968 8.45099L137.963 8.45554ZM140 15.0824C142.835 14.6321 145.799 14.8368 148.543 15.6737C145.73 16.2741 142.712 16.0603 140 15.0824ZM146.895 20.5403C150.525 20.2129 154.155 21.5455 156.721 22.8372C157.425 23.192 158.119 23.5741 158.799 23.9789C154.621 23.9379 150.447 22.7326 146.895 20.5403ZM148.475 8.20539C148.616 8.97405 148.735 9.75181 148.854 10.525C149.004 11.5256 149.16 12.5445 149.37 13.5587C148.762 13.0766 148.269 12.2215 147.813 10.8934C147.059 8.69205 146.557 6.39971 146.315 4.08463C146.26 3.56613 146.214 2.99305 146.21 2.40177C147.269 3.77536 148 5.6447 148.475 8.20539Z" fill="#496A54"/>
<path d="M176.94 69.9433C174.173 93.981 157.214 113.53 133.739 119.747C128.799 121.057 123.73 121.721 118.666 121.726L78.9946 121.726L78.9946 120.102L118.666 120.102C123.588 120.102 128.52 119.451 133.324 118.178C156.146 112.133 172.634 93.1259 175.324 69.7568L176.945 69.9388L176.94 69.9433Z" fill="#866654"/>
<path d="M90.13 55.9316C89.475 56.1326 89.0702 57.096 88.7155 57.7079C87.8558 59.6851 86.596 60.6486 84.2218 59.6851C78.7183 57.5572 70.536 52.4841 66.2424 48.1736C62.7584 52.0777 55.4356 57.6029 47.7581 60.1919C44.5243 61.2559 45.2338 56.2878 42 55.2239L42.3047 54.5161C43.7193 54.7718 45.434 54.8723 49.4774 53.0458C54.3259 51.0184 59.4791 48.1279 63.668 43.4612C65.0325 41.8905 67.052 41.8905 68.0117 42.8539C69.1715 44.0183 70.1312 45.1873 72.5054 47.1645C76.3942 50.4111 84.2218 53.8586 90.08 55.1736L90.13 55.9362V55.9316ZM46.8485 41.0274C45.3839 41.0274 44.1741 39.8631 44.1741 38.5936C44.1241 37.2238 45.1838 36.1598 46.7484 36.1598H55.7358V34.8402C55.7358 33.2694 56.8956 32 58.6649 32C60.2796 32 61.4439 33.2694 61.4439 34.8402V36.1598H70.8362V34.8402C70.8362 33.2694 71.996 32 73.7652 32C75.3799 32 76.5443 33.2694 76.5443 34.8402V36.1598H81.9976C84.4219 36.1598 84.5219 36.0092 84.2718 35.3973L84.8267 34.9909C85.7864 35.347 87.1509 36.2101 87.5011 36.6119C88.8155 38.3379 88.7655 41.0229 85.1769 41.0229H76.5397V42.443C76.5397 44.0138 75.3799 45.2832 73.7607 45.2832C71.9914 45.2832 70.8316 44.0138 70.8316 42.443V41.0229H61.4394V42.2421C61.4394 43.8128 60.2796 45.0823 58.6604 45.0823C56.8911 45.0823 55.7313 43.8128 55.7313 42.2421V41.0229H46.8439L46.8485 41.0274ZM49.5229 76.9226C47.0986 78.2925 45.2793 74.9957 45.9388 72.1052L46.4437 71.7993C46.6984 72.1555 46.9986 72.3564 47.8582 72.0002C49.2727 71.3929 56.6455 66.0687 57.6052 64.4979L58.2101 64.9043C57.6552 67.1874 60.9391 67.539 59.3199 69.9728C58.5103 71.3427 51.9971 75.5482 49.5229 76.9181V76.9226ZM68.9668 63.8952V67.1417C68.9668 74.7491 67.807 76.9272 64.7232 77.74C58.5103 79.361 62.299 74.6486 57.6507 73.2285L58.0555 72.4157C60.7299 73.0733 61.4394 72.8724 62.299 72.0093C63.5089 70.7902 63.5089 67.5481 63.5089 65.3152V63.8952H53.0569C51.8971 63.8952 50.9374 62.781 50.9374 61.612C50.8874 60.3929 51.8971 59.0778 52.9568 59.0778H63.5134V55.0732C63.2587 53.4522 64.373 52.1325 66.1378 52.1325C67.5523 52.1325 69.0168 53.4522 68.9668 55.0732V59.0778H78.1589C78.359 59.0778 78.4136 58.9271 78.359 58.5709L78.2089 58.0138L78.7638 57.8129C81.893 59.7399 82.1477 63.8952 78.8639 63.8952H68.9668ZM85.5317 72.8176C86.4413 74.4888 84.8767 76.2149 83.3076 76.6213C82.9028 76.7719 81.5383 77.1281 81.0834 77.3838L80.4285 77.1281L80.7332 76.7719C80.8833 76.466 80.8833 76.0642 80.7332 75.6075C80.1783 74.5436 74.7249 70.2331 72.8556 69.2696C71.1909 68.3061 72.2006 65.9226 74.12 65.265C76.899 64.7079 84.572 70.6395 85.5317 72.8176Z" fill="#866654"/>
<path d="M50.6231 91.1959L53.7569 87.1321H50.9006C50.5913 87.1321 50.2957 86.9266 50.2957 86.6344C50.2957 86.2599 50.614 86.091 50.9006 86.091H54.0162C54.5392 86.091 54.9304 86.4928 54.9304 86.9722C54.9304 87.3101 54.7439 87.4791 54.521 87.7668L51.2917 91.9265H53.8388C54.2208 91.9265 54.239 91.9082 54.2663 91.8808C54.3118 91.8351 54.33 91.7393 54.3618 91.6662C54.3709 91.6205 54.38 91.5703 54.38 91.5246L54.5119 91.4973C54.6074 91.5931 54.9213 91.9356 54.9986 92.0406C55.2988 92.3694 55.2669 92.9219 54.5119 92.9219H51.0598C50.5458 92.9219 50.1365 92.5566 50.1365 92.0589C50.1365 91.7986 50.473 91.3648 50.6231 91.1959Z" fill="#496A54"/>
<path d="M70.8292 89.4996C70.8292 91.7963 69.6148 92.9379 67.9728 92.9379C66.3309 92.9379 65.1756 91.7278 65.1756 89.6685V86.6823C65.1756 86.3718 65.4076 86.075 65.7351 86.075C66.1535 86.075 66.34 86.3946 66.34 86.6823V89.6137C66.34 91.084 66.9176 91.8055 67.9728 91.8055C69.028 91.8055 69.6602 91.1799 69.6602 89.4996V86.7006C69.6602 86.3901 69.8922 86.0933 70.2197 86.0933C70.6381 86.0933 70.8246 86.4129 70.8246 86.7006V89.4996H70.8292Z" fill="#496A54"/>
<path d="M80.8292 92.3808V86.696C80.8292 86.3946 81.0611 86.107 81.3886 86.107C81.807 86.107 81.9935 86.4083 81.9935 86.696V92.3808C81.9935 92.6822 81.7616 92.9059 81.4341 92.9059C81.0702 92.9059 80.8292 92.6822 80.8292 92.3808Z" fill="#496A54"/>
<path d="M108.741 32.6223C109.032 32.6223 109.3 32.8369 109.3 33.1474C109.3 33.5492 109.009 33.7181 108.741 33.7181H107.231V38.9189C107.231 39.2294 106.999 39.4623 106.671 39.4623C106.307 39.4623 106.066 39.2294 106.066 38.9189V33.7181H104.452C104.161 33.7181 103.947 33.4944 103.947 33.193C103.947 32.846 104.161 32.6223 104.452 32.6223H108.745H108.741Z" fill="#496A54"/>
<path d="M122.607 39.4646C121.534 39.4372 120.033 39.4372 118.942 39.4646H118.896C118.86 39.4646 118.832 39.4645 118.814 39.4554C118.487 39.428 118.3 39.2134 118.3 38.9486V33.1953C118.3 32.8939 118.532 32.6154 118.86 32.6154C118.914 32.6154 118.955 32.6154 118.983 32.6245H122.498C122.789 32.6245 123.058 32.83 123.058 33.1222C123.058 33.4967 122.767 33.6656 122.498 33.6656H119.465V35.2683H122.03C122.321 35.2683 122.589 35.4646 122.589 35.766C122.589 36.1404 122.298 36.3002 122.03 36.3002H119.465V38.4828H122.003C122.348 38.4828 122.366 38.4737 122.394 38.4463C122.43 38.4007 122.448 38.3139 122.476 38.2408C122.485 38.1952 122.494 38.1586 122.494 38.1084L122.607 38.081C122.68 38.186 122.98 38.5011 123.044 38.597C123.353 38.9075 123.258 39.4691 122.607 39.4691V39.4646Z" fill="#496A54"/>
<path d="M138.181 38.7953C138.286 39.0556 138.154 39.3113 137.826 39.43C137.535 39.535 137.258 39.4026 137.153 39.1469L135.211 33.937L134.174 36.7269H135.175C135.539 36.7269 135.716 36.6995 135.575 36.4438L135.707 36.3707C135.78 36.4757 136.071 36.7451 136.144 36.8502C136.248 37.01 136.453 37.6629 135.725 37.6629H134.083C134.001 37.6629 133.924 37.6447 133.851 37.6173L133.283 39.1515C133.178 39.4026 132.919 39.5442 132.628 39.4437C132.3 39.3295 132.141 39.0693 132.246 38.8181L134.402 33.2064C134.543 32.8685 134.811 32.6082 135.211 32.6082C135.611 32.6082 135.884 32.8776 136.021 33.2155L138.177 38.7907L138.181 38.7953Z" fill="#496A54"/>
<path d="M141.111 80.9232H133.029V89.8958C133.029 91.2657 132.119 92.3296 130.455 92.3296C129.04 92.3296 127.776 91.2155 127.776 89.8456V80.9232H121.663C120.298 80.9232 119.189 79.9597 119.189 78.6903C119.139 77.3204 120.198 76.156 121.563 76.156H127.776V74.9916C127.776 73.7724 128.535 72.8135 129.695 72.5578C129.595 72.5076 129.495 72.3569 129.34 72.1514C129.186 71.9459 128.835 71.2884 128.076 71.4437L127.821 70.9368C127.921 70.8866 128.021 70.8363 128.126 70.7359L128.731 70.229L126.561 70.8363L126.157 70.4802L126.411 69.9733C126.561 69.7176 126.611 69.366 126.461 69.1605C126.107 68.6035 125.906 68.0464 125.552 67.64C124.592 69.6172 123.482 71.3432 122.218 72.8638C121.258 73.9779 119.289 74.0784 118.229 73.2701V87.3661C118.179 89.1424 117.169 89.9004 115.755 89.9004H101.464C99.8993 89.9506 99.0897 89.1378 99.0897 87.4666V60.0372C99.0897 58.7678 99.9493 57.9093 101.159 57.9093H103.988L103.938 54.2061H100.504C99.2398 54.2061 98.13 53.2929 98.13 51.923C98.13 50.6536 99.0897 49.4892 100.454 49.4892H114.19C115.655 49.4892 115.909 49.4892 115.959 49.3385C116.109 49.0874 116.264 48.7814 116.314 48.375L116.414 47.7175L116.969 47.5166C117.224 48.0737 118.738 49.5942 118.988 50.0006C120.303 51.6216 119.948 54.2107 117.219 54.2107H113.23V57.9139H116.159C117.574 57.9139 118.229 58.8774 118.229 60.1468V70.0829C118.329 70.0327 118.429 69.9322 118.584 69.777C120.603 67.4939 122.372 63.9459 123.332 59.8911C123.687 58.6719 124.647 57.9139 125.856 58.0646C127.626 58.3203 128.231 59.3842 127.876 60.955C127.676 61.7678 127.471 62.6308 127.221 63.4893C127.98 64.0464 128.735 64.7039 129.695 65.8728C130.455 66.7359 130.91 67.2427 130.855 67.85C132.319 65.7724 133.379 63.2884 133.934 59.8911C134.134 58.6719 135.149 57.8637 136.358 57.9139C138.128 58.0646 138.783 59.1331 138.528 60.7039C138.378 61.8683 138.123 62.987 137.768 64.1012C139.183 65.1651 140.547 66.334 141.907 67.6993C143.067 68.8637 143.472 69.3706 143.222 70.3843C143.022 71.398 142.362 72.0053 141.707 72.1606C141.402 72.3615 139.333 73.0236 138.928 73.1743L138.473 72.8181L138.728 72.261C138.878 71.9049 138.878 71.6035 138.728 71.4482C137.968 70.2838 137.113 69.1149 136.154 68.1514C135.499 69.5213 134.739 70.7359 133.779 72.0053C133.375 72.5121 132.82 72.8683 132.06 73.019C132.715 73.4756 133.02 74.1332 133.02 74.9962V76.1606H138.119C139.733 76.1606 139.888 76.1103 140.038 75.9597C140.293 75.7587 140.443 75.4528 140.493 74.9962C140.543 74.7953 140.543 74.5898 140.543 74.3386L141.098 74.188C141.502 74.5944 143.017 76.3158 143.267 76.7222C144.632 78.3432 144.327 80.9323 141.098 80.9323L141.111 80.9232ZM103.638 77.1697H113.74V73.1651C112.58 73.2154 111.265 73.2154 111.115 73.2154H110.711C110.456 73.2154 110.256 73.1651 110.106 73.0647C109.751 72.9642 109.501 72.7587 109.401 72.4574C109.251 72.2016 109.201 71.9505 109.201 71.6948L109.251 62.2655H107.836C107.836 66.777 108.141 72.1012 103.643 74.8409V77.1743L103.638 77.1697ZM103.638 62.2655V70.6811C105.002 68.4482 104.902 65.4573 104.902 62.2655H103.638ZM103.638 85.2337H113.74V81.43H103.638V85.2337ZM107.827 54.2015V57.9048H109.392L109.342 54.2015H107.827ZM113.735 69.4162V62.2655H112.171V69.4665L113.735 69.4162ZM122.222 56.8911C121.062 56.8911 120.103 55.9778 120.103 54.8134C120.103 53.544 120.912 52.5303 122.072 52.5303H128.03C128.03 51.5668 128.03 50.8043 127.88 50.6034C127.626 50.1467 127.275 49.8956 126.871 49.8956C126.671 49.8956 126.466 49.9458 126.266 50.0463L126.216 49.439C126.771 49.0326 128.235 48.1696 129.045 47.9184C131.874 46.754 133.893 48.0189 133.893 50.2015C133.893 51.5714 133.893 51.7723 133.843 52.5349H140.861C142.021 52.5349 142.981 53.5988 142.981 54.8682C142.981 56.0326 142.021 56.8956 140.861 56.8956H122.227L122.222 56.8911Z" fill="#866654"/>
</svg>
