<svg width="81" height="54" viewBox="0 0 81 54" fill="none" xmlns="http://www.w3.org/2000/svg">
<path d="M3.78372 28.9001C3.91297 30.0112 4.1158 31.1085 4.38425 32.188C4.38823 32.5227 4.3922 32.8614 4.38425 33.2041C3.8732 33.1962 3.2846 33.4873 2.91672 33.7072C1.97814 34.2677 1.4313 35.3848 1.2921 37.0308C1.27221 37.2625 1.25829 37.4963 1.24438 37.73C1.1887 38.6708 1.13501 39.5601 0.729348 40.3227C0.544416 40.6673 0.289885 40.9724 0.0890446 41.1982C-0.0262896 41.3289 -0.0302666 41.523 0.0810905 41.6577C0.192448 41.7924 0.385334 41.826 0.534473 41.7369C2.61049 40.5188 4.14364 38.4846 4.74218 36.1593C4.89331 35.571 4.98279 34.9729 5.0345 34.3727C5.3984 35.4304 5.8299 36.4623 6.32505 37.4665C6.41254 37.7597 6.47816 38.0449 6.52191 38.3262C6.28925 38.3163 6.04466 38.3816 5.83189 38.5242C5.53361 38.7223 5.3447 39.0174 5.20153 39.2789C4.62287 40.3326 4.36238 41.5052 4.10983 42.6401C3.92291 43.4859 3.72804 44.3593 3.40391 45.1556C3.34226 45.3061 3.39198 45.4804 3.52521 45.5755C3.65844 45.6706 3.8394 45.6626 3.96268 45.5577C6.08642 43.7493 7.24573 41.5012 7.28152 39.267C7.29544 39.2809 7.30936 39.2947 7.32527 39.3086C7.75479 40.0256 8.21613 40.7228 8.71326 41.3982C8.7749 41.4814 8.8445 41.5606 8.90615 41.6438C8.23204 41.9746 7.7369 42.6777 7.57384 43.5651C7.43862 44.294 7.52611 45.0229 7.61162 45.726L7.62952 45.8706C7.7886 47.2016 7.88405 48.5564 7.91586 49.8993C7.91984 50.0538 8.02523 50.1885 8.17437 50.2321C8.32351 50.2737 8.48458 50.2143 8.5681 50.0835C8.92007 49.5428 9.15073 48.9387 9.33964 48.4158C9.67173 47.4968 10.0694 46.2786 10.1947 45.0169C10.2225 44.7377 10.2365 44.4623 10.2365 44.193C10.2365 43.8424 10.2047 43.5037 10.1569 43.1729C10.7614 43.8582 11.3918 44.5178 12.0639 45.1358C11.8511 47.0055 11.873 48.8991 12.1355 50.7649C12.2409 51.5195 12.396 52.3158 12.7917 53.0288C12.8713 53.1734 13.0423 53.2427 13.2014 53.1972C13.3604 53.1516 13.4658 53.0011 13.4579 52.8387C13.4181 52.1157 13.444 51.3829 13.5295 50.6619C13.5633 50.3905 13.603 50.1212 13.6448 49.8498C13.7383 49.2497 13.8317 48.6297 13.8317 47.9999C13.8317 47.9642 13.8317 47.9285 13.8317 47.8929C13.8218 47.3522 13.7303 46.855 13.5672 46.4153C14.0524 46.7996 14.5535 47.164 15.0646 47.5126C15.2615 48.1583 15.3649 48.8238 15.4722 49.525C15.5239 49.8696 15.5756 50.2162 15.6413 50.5589C15.8103 51.4641 16.1404 52.7753 17.0491 53.7201C17.1267 53.7993 17.3593 54.0429 17.6875 53.9934C17.8426 53.9697 17.9639 53.8488 17.9857 53.6963C18.0215 53.4586 18.0354 53.219 18.0354 52.9892C18.0354 52.6822 18.0116 52.395 17.9857 52.1514C17.8744 51.0897 17.6437 50.04 17.2997 49.0298C17.2798 48.9684 17.2559 48.905 17.2321 48.8416C17.7292 49.115 18.2343 49.3725 18.7493 49.6141C19.153 50.5114 19.7615 50.9531 20.5469 51.3155C21.4497 51.7335 22.4162 51.9038 23.3528 52.0721C23.5238 52.1019 23.6928 52.0048 23.7505 51.8404C23.7644 51.8028 23.7703 51.7632 23.7703 51.7235C23.7703 51.5968 23.7007 51.476 23.5834 51.4126C23.1698 51.1907 22.8059 50.8897 22.4181 50.5708C22.1517 50.3509 21.8753 50.1232 21.579 49.9211L21.3264 49.7448C20.6623 49.2754 19.837 48.703 18.9522 48.9288C18.4391 48.6852 17.934 48.4257 17.4389 48.1484C18.7076 48.3306 20.018 48.2494 21.235 47.8909C21.3722 47.8513 21.4716 47.7325 21.4875 47.5898C21.4875 47.576 21.4895 47.5641 21.4895 47.5502C21.4895 47.4235 21.4199 47.3046 21.3066 47.2412C19.5845 46.2866 17.5125 46.0627 15.6254 46.6253C15.4842 46.6668 15.3748 46.7342 15.2813 46.8114C14.4342 46.2212 13.6269 45.5795 12.8573 44.8922C14.7385 45.7518 16.5222 46.0033 18.0354 45.6012C18.1667 45.5656 18.2661 45.4606 18.292 45.3259C18.2959 45.3041 18.2979 45.2804 18.2979 45.2586C18.2979 45.1477 18.2462 45.0427 18.1567 44.9753C16.0907 43.4304 13.432 42.6718 10.8589 42.8956C10.4492 42.4401 10.0555 41.9706 9.67968 41.4854C9.67968 41.4854 9.67968 41.4854 9.67968 41.4834C9.65582 41.4339 9.62201 41.3943 9.58224 41.3626C9.48282 41.2338 9.37743 41.111 9.28198 40.9803C9.11295 40.7505 8.95984 40.5109 8.79678 40.2752C9.04534 40.39 9.29789 40.495 9.54844 40.5941C11.3341 41.3091 13.4082 42.0281 15.4225 41.5151C15.6293 41.4616 15.8699 41.3863 16.0807 41.2318C16.1623 41.1724 16.214 41.0813 16.2219 40.9803C16.2219 40.9704 16.2219 40.9585 16.2219 40.9486C16.2219 40.8595 16.1881 40.7723 16.1265 40.707C15.685 40.2356 15.0586 40.0731 14.5038 39.9285L14.2692 39.8671C13.5593 39.673 12.8534 39.3779 12.1713 39.0907C11.1134 38.647 10.0197 38.1855 8.83655 38.0687C8.50645 38.035 8.08091 38.0271 7.73491 38.2489C7.69713 38.2608 7.60168 38.2549 7.52611 38.2469C6.96933 37.2447 6.48015 36.2068 6.06455 35.1392C6.26539 35.262 6.46424 35.365 6.63724 35.4522L6.78042 35.5255C8.75502 36.5515 10.9762 37.0328 13.2014 36.9159C13.8834 36.8803 14.8896 36.7733 15.7427 36.2623C15.852 36.1969 15.9157 36.0801 15.9157 35.9592C15.9157 35.9216 15.9097 35.884 15.8978 35.8463C15.8441 35.6879 15.687 35.5889 15.522 35.6087C14.3149 35.7453 13.1119 35.2006 11.9327 34.6678C10.66 34.0915 9.30186 33.5507 7.92779 33.7983C7.39686 33.8934 6.852 34.1845 6.61935 34.6441C6.16199 34.3905 5.67082 34.0419 5.48191 33.4715C5.34073 33.0179 5.20551 32.5624 5.09017 32.1009C5.09017 32.0929 5.09017 32.087 5.09017 32.0791C5.09017 32.0236 5.07427 31.9741 5.0504 31.9285C4.79985 30.9065 4.60696 29.8686 4.48367 28.8189C4.4618 28.6247 4.28482 28.4861 4.08995 28.5079C3.89507 28.5317 3.75389 28.7119 3.77775 28.9001L3.78372 28.9001ZM1.61225 40.0593C1.86281 39.3225 1.90854 38.5361 1.95428 37.7716C1.9682 37.5418 1.98212 37.314 2.00001 37.0882C2.11932 35.6839 2.55083 34.749 3.28062 34.3133C3.73599 34.0419 4.13568 33.9112 4.35641 33.9072C4.31465 34.6084 4.22716 35.3076 4.05217 35.985C3.65049 37.5497 2.78946 38.9699 1.61026 40.0593L1.61225 40.0593ZM9.49077 44.9476C9.37146 46.1321 8.99165 47.2947 8.67349 48.1761C8.63968 48.2672 8.60588 48.3623 8.57009 48.4574C8.51838 47.5641 8.44083 46.6708 8.33544 45.7874L8.31754 45.6409C8.23601 44.9595 8.15846 44.3158 8.2738 43.6919C8.36925 43.169 8.6715 42.5312 9.23226 42.2658C9.49873 43.058 9.58821 43.9751 9.49077 44.9476ZM13.1258 47.9068C13.1377 48.5109 13.0443 49.111 12.9468 49.7429C12.9051 50.0182 12.8613 50.2935 12.8295 50.5708C12.6326 49.1189 12.5829 47.6493 12.6823 46.1895C13.0443 46.7778 13.1198 47.4789 13.1258 47.9068ZM16.6296 49.2616C16.9577 50.2222 17.1784 51.2185 17.2818 52.2266C17.3037 52.4425 17.3255 52.6941 17.3275 52.9595C16.8662 52.3613 16.548 51.5473 16.3412 50.4321C16.2796 50.0974 16.2279 49.7607 16.1782 49.424C16.1125 48.9882 16.0449 48.5426 15.9535 48.1009C16.2179 48.3108 16.4327 48.6832 16.6315 49.2616L16.6296 49.2616ZM20.9208 50.3232L21.1813 50.5034C21.4199 50.6678 21.6466 50.8501 21.8793 51.0422C21.5253 50.9451 21.1793 50.8283 20.8492 50.6758C20.2566 50.4024 19.8907 50.1192 19.6243 49.727C19.6422 49.7052 19.6621 49.6834 19.674 49.6577C19.678 49.6498 19.674 49.6418 19.678 49.6359C20.0856 49.7468 20.5072 50.032 20.9208 50.3232ZM20.0339 47.4393C18.799 47.6354 17.5085 47.5463 16.3134 47.1818C17.5383 46.9204 18.8527 47.0135 20.0339 47.4393ZM17.0312 45.0625C15.4484 45.2051 13.8695 44.6248 12.7519 44.0622C12.4457 43.9077 12.1435 43.7414 11.8472 43.5651C13.6667 43.5829 15.4842 44.1078 17.0312 45.0625ZM8.77292 38.7718C9.8487 38.8788 10.8469 39.2987 11.9028 39.7424C12.6068 40.0395 13.3346 40.3445 14.0902 40.5505L14.3328 40.6139C14.6132 40.6871 14.8876 40.7585 15.1243 40.8614C13.3565 41.2576 11.4614 40.596 9.81888 39.9384C9.11892 39.6592 8.44879 39.366 7.94768 38.9263C8.00535 38.9085 8.06102 38.8847 8.11471 38.851C8.2897 38.7401 8.56014 38.75 8.7749 38.7718L8.77292 38.7718ZM8.05904 34.4935C9.23226 34.2816 10.4234 34.7589 11.6563 35.3175C12.3344 35.6225 13.0622 35.9533 13.8218 36.1514C13.6189 36.1771 13.4022 36.1969 13.1695 36.2108C11.1253 36.3177 9.08312 35.8899 7.25567 34.9709C7.36902 34.7312 7.719 34.5549 8.05904 34.4935ZM4.80184 42.7946C5.05438 41.6597 5.293 40.5861 5.82394 39.6215C5.92535 39.4354 6.05461 39.2294 6.22562 39.1145C6.34493 39.0353 6.49407 39.0135 6.58753 39.057C6.64321 41.1823 5.52367 42.9174 4.50953 44.0405C4.6189 43.6245 4.71236 43.2066 4.80383 42.7946L4.80184 42.7946Z" fill="#496A54"/>
<path d="M47.6585 0.99608L47.6585 1.70319L29.3243 1.70319C27.1807 1.70319 25.0331 1.98642 22.9412 2.54102C13.0025 5.17533 5.82199 13.4507 4.65075 23.6274L3.94482 23.5462C5.14987 13.0803 12.5352 4.56727 22.7582 1.85768C24.9098 1.28724 27.1171 0.998063 29.3223 0.996081L47.6565 0.99608L47.6585 0.99608Z" fill="#866654"/>
<path d="M63.3101 0.0100171C63.155 0.0337846 63.0337 0.154606 63.0118 0.307119C62.9283 0.865673 62.968 1.42621 63.0118 1.85206C63.1232 2.91371 63.3538 3.96347 63.6978 4.97362C63.7177 5.03503 63.7416 5.09841 63.7654 5.16179C63.2683 4.88846 62.7632 4.63096 62.2482 4.38932C61.8445 3.49207 61.236 3.05038 60.4506 2.68791C59.5518 2.27197 58.5834 2.09965 57.6448 1.93129C57.4738 1.90158 57.3047 1.99863 57.2471 2.16302C57.1914 2.32742 57.259 2.50767 57.4141 2.59085C57.8257 2.81269 58.1916 3.11376 58.5774 3.43265C58.8439 3.6525 59.1203 3.88028 59.4165 4.0843L59.6671 4.2586C60.3333 4.72802 61.1565 5.30242 62.0434 5.07662C62.5564 5.32024 63.0615 5.57972 63.5566 5.85701C62.288 5.67479 60.9775 5.756 59.7606 6.11648C59.6234 6.1561 59.5239 6.27494 59.508 6.41755C59.4921 6.55818 59.5637 6.69682 59.689 6.76615C61.411 7.72084 63.4811 7.94466 65.3702 7.38214C65.5114 7.34055 65.6207 7.2732 65.7122 7.19596C66.5593 7.7862 67.3667 8.42795 68.1362 9.11525C66.2551 8.25563 64.4714 8.00408 62.9581 8.40616C62.8269 8.44181 62.7274 8.54679 62.7016 8.68147C62.6757 8.81418 62.7274 8.95085 62.8368 9.03206C64.9029 10.577 67.5615 11.3336 70.1347 11.1118C70.5443 11.5673 70.938 12.0368 71.3139 12.522C71.3357 12.5716 71.3715 12.6112 71.4093 12.6429C71.5087 12.7716 71.6141 12.8944 71.7116 13.0251C71.8806 13.2549 72.0337 13.4946 72.1968 13.7303C71.9482 13.6154 71.6957 13.5104 71.4451 13.4094C69.6574 12.6963 67.5834 11.9773 65.573 12.4884C65.3662 12.5418 65.1256 12.6151 64.9148 12.7716C64.8333 12.831 64.7816 12.9241 64.7736 13.0231C64.7657 13.1281 64.7995 13.2232 64.8671 13.2965C65.3085 13.7679 65.9369 13.9303 66.4917 14.0749L66.7224 14.1363C67.4323 14.3304 68.1382 14.6255 68.8223 14.9127C69.8801 15.3564 70.9738 15.8179 72.157 15.9348C72.4871 15.9684 72.9146 15.9764 73.2586 15.7545C73.2964 15.7426 73.3919 15.7486 73.4674 15.7565C74.0242 16.7587 74.5134 17.7986 74.929 18.8642C74.7282 18.7414 74.5293 18.6404 74.3583 18.5512L74.2131 18.478C72.2385 17.452 70.0174 16.9707 67.7922 17.0875C67.1101 17.1232 66.1039 17.2301 65.2509 17.7411C65.1077 17.8263 65.0441 17.9986 65.0978 18.1571C65.1514 18.3155 65.3085 18.4146 65.4736 18.3948C66.6806 18.2581 67.8857 18.8048 69.0629 19.3356C70.3355 19.912 71.6937 20.4527 73.0658 20.2051C73.5967 20.1101 74.1415 19.8189 74.3742 19.3574C74.8336 19.6109 75.3247 19.9595 75.5116 20.5319C75.6528 20.9855 75.788 21.4411 75.9034 21.9026C75.9034 21.9105 75.9034 21.9164 75.9034 21.9244C75.9034 21.9798 75.9193 22.0293 75.9431 22.0749C76.1937 23.0969 76.3866 24.1348 76.5099 25.1846C76.5318 25.3787 76.7087 25.5173 76.9036 25.4955C77.0846 25.4738 77.2178 25.3212 77.2178 25.145C77.2178 25.1311 77.2178 25.1172 77.2158 25.1034C77.0865 23.9942 76.8837 22.8949 76.6153 21.8154C76.6093 21.4807 76.6073 21.142 76.6153 20.7993C77.1263 20.8073 77.7149 20.5161 78.0828 20.2962C79.0214 19.7357 79.5682 18.6186 79.7074 16.9726C79.7273 16.7409 79.7412 16.5052 79.7551 16.2715C79.8108 15.3306 79.8645 14.4433 80.2702 13.6807C80.4133 13.4114 80.6122 13.142 80.9105 12.8053C80.9701 12.7379 81 12.6547 81 12.5716C81 12.4884 80.9721 12.4131 80.9184 12.3457C80.8071 12.2111 80.6142 12.1774 80.465 12.2665C78.389 13.4846 76.8559 15.5168 76.2573 17.8422C76.1062 18.4304 76.0167 19.0286 75.965 19.6287C75.6011 18.5711 75.1696 17.5391 74.6745 16.5349C74.585 16.2418 74.5214 15.9546 74.4776 15.6733C74.7103 15.6832 74.9549 15.6178 75.1676 15.4752C75.4659 15.2772 75.6548 14.982 75.798 14.7206C76.3766 13.6669 76.6371 12.4943 76.8897 11.3594C77.0766 10.5156 77.2715 9.64211 77.5956 8.84587C77.6135 8.80229 77.6215 8.75872 77.6215 8.71316C77.6215 8.60225 77.5678 8.49529 77.4743 8.42597C77.3411 8.33089 77.1601 8.33881 77.0368 8.44379C74.9131 10.2522 73.7558 12.5022 73.72 14.7364C73.7061 14.7206 73.6902 14.7067 73.6742 14.6929C73.2467 13.9759 72.7834 13.2787 72.2863 12.6032C72.2246 12.5201 72.155 12.4408 72.0934 12.3576C72.7675 12.0269 73.2606 11.3237 73.4257 10.4364C73.4754 10.165 73.4953 9.89167 73.4953 9.6223C73.4953 9.16872 73.4416 8.71713 73.3879 8.27741L73.37 8.13084C73.2109 6.79784 73.1155 5.44305 73.0837 4.10212C73.0797 3.94763 72.9743 3.81294 72.8251 3.76937C72.676 3.72777 72.5149 3.78719 72.4314 3.91792C72.0814 4.45666 71.8488 5.06275 71.6599 5.58566C71.3278 6.50668 70.9301 7.72282 70.8048 8.98452C70.7412 9.6223 70.7511 10.2383 70.8326 10.8186C70.2321 10.1373 69.6037 9.48167 68.9356 8.86568C69.0311 8.02785 69.0808 7.18606 69.0808 6.34426C69.0808 5.30638 69.0072 4.26652 68.862 3.23656C68.7566 2.48192 68.6015 1.68568 68.2058 0.972633C68.1263 0.828043 67.9553 0.758718 67.7962 0.804273C67.6371 0.84983 67.5297 0.984516 67.5397 1.16278C67.5794 1.88771 67.5556 2.62057 67.4681 3.33956C67.4343 3.61091 67.3925 3.88227 67.3527 4.15362C67.2553 4.78744 67.1559 5.44107 67.1658 6.10856C67.1758 6.64929 67.2672 7.14644 67.4303 7.58417C66.9451 7.19992 66.444 6.83547 65.9329 6.48687C65.7361 5.84117 65.6327 5.17763 65.5273 4.47449C65.4756 4.12787 65.4239 3.78323 65.3582 3.44057C65.1892 2.53738 64.8611 1.22616 63.9524 0.281368C63.8768 0.202141 63.6422 -0.0414794 63.3121 0.00605747L63.3101 0.0100171ZM72.2286 15.2336C71.1528 15.1266 70.1546 14.7067 69.0987 14.2631C68.3947 13.9679 67.6669 13.6609 66.9113 13.4549L66.6727 13.3916C66.3903 13.3183 66.1179 13.247 65.8792 13.144C67.647 12.7478 69.5421 13.4094 71.1846 14.067C71.8846 14.3462 72.5547 14.6394 73.0558 15.0791C72.9982 15.0969 72.9425 15.1207 72.8888 15.1544C72.7138 15.2653 72.4434 15.2554 72.2286 15.2336ZM72.9425 19.5139C71.7692 19.7258 70.5781 19.2485 69.3472 18.6919C68.6691 18.3849 67.9413 18.0561 67.1817 17.856C67.3846 17.8283 67.6013 17.8105 67.834 17.7966C69.8801 17.6896 71.9204 18.1175 73.7478 19.0365C73.6345 19.2762 73.2845 19.4525 72.9445 19.5139L72.9425 19.5139ZM79.3893 13.9461C79.1407 14.683 79.093 15.4673 79.0472 16.2319C79.0333 16.4616 79.0194 16.6894 79.0015 16.9152C78.8842 18.3195 78.4527 19.2544 77.7209 19.6901C77.2655 19.9615 76.8658 20.0922 76.6451 20.0962C76.6869 19.397 76.7744 18.6958 76.9493 18.0184C77.351 16.4557 78.2121 15.0355 79.3912 13.9442L79.3893 13.9461ZM76.492 9.96496C76.3826 10.3809 76.2911 10.7988 76.1977 11.2108C75.9451 12.3477 75.7065 13.4193 75.1756 14.3859C75.0722 14.572 74.9449 14.778 74.7739 14.8929C74.6546 14.9721 74.5054 14.9939 74.412 14.9504C74.3563 12.8191 75.4758 11.09 76.49 9.96694L76.492 9.96496ZM71.5107 9.05781C71.63 7.88128 71.99 6.76417 72.328 5.82928C72.3618 5.73817 72.3956 5.6431 72.4314 5.54802C72.4831 6.44132 72.5607 7.33461 72.6661 8.21799L72.684 8.36654C72.7655 9.0479 72.843 9.69163 72.7277 10.3136C72.6323 10.8365 72.328 11.4742 71.7692 11.7397C71.5028 10.9474 71.4133 10.0323 71.5107 9.05781ZM67.8757 6.09866C67.8618 5.49454 67.9572 4.89638 68.0547 4.26454C68.0964 3.98724 68.1402 3.71193 68.174 3.43463C68.3709 4.88647 68.4226 6.35416 68.3211 7.81591C67.9592 7.22765 67.8837 6.52648 67.8757 6.09866ZM60.0807 3.68221L59.8222 3.50197C59.5836 3.33757 59.3589 3.15733 59.1242 2.96322C59.4782 3.06028 59.8262 3.17714 60.1543 3.32965C60.7469 3.60299 61.1128 3.88622 61.3792 4.2784C61.3613 4.30019 61.3414 4.32198 61.3295 4.34773C61.3255 4.35565 61.3275 4.36159 61.3255 4.36951C60.9159 4.2586 60.4943 3.97139 60.0827 3.68023L60.0807 3.68221ZM60.9676 6.56808C62.2025 6.37199 63.493 6.46112 64.6881 6.82557C63.4632 7.08702 62.1488 6.99393 60.9676 6.56808ZM63.9703 8.94491C65.5511 8.8023 67.132 9.38264 68.2496 9.94515C68.5558 10.0996 68.858 10.266 69.1543 10.4423C67.3348 10.4245 65.5173 9.8996 63.9703 8.94491ZM64.6583 3.57328C64.7199 3.90801 64.7716 4.24671 64.8233 4.58343C64.889 5.01918 64.9566 5.46286 65.048 5.90455C64.7836 5.6946 64.5688 5.32223 64.37 4.74387C64.0418 3.78521 63.8231 2.78694 63.7177 1.77877C63.6939 1.55297 63.674 1.30341 63.672 1.04592C64.1333 1.64409 64.4515 2.45815 64.6583 3.57328Z" fill="#496A54"/>
<path d="M77.0546 30.4589C75.8496 40.9268 68.4642 49.4398 58.2413 52.1474C56.0897 52.7179 53.8824 53.0071 51.6771 53.009L34.4009 53.009L34.4009 52.3019L51.6771 52.3019C53.8208 52.3019 55.9684 52.0187 58.0603 51.4641C67.9989 48.8318 75.1795 40.5545 76.3507 30.3777L77.0566 30.4569L77.0546 30.4589Z" fill="#866654"/>
<path d="M39.2501 24.3571C38.9649 24.4446 38.7886 24.8641 38.6341 25.1306C38.2598 25.9916 37.7111 26.4112 36.6772 25.9916C34.2805 25.065 30.7172 22.8557 28.8474 20.9786C27.3302 22.6788 24.1413 25.0849 20.7979 26.2123C19.3896 26.6757 19.6986 24.5122 18.2903 24.0488L18.423 23.7406C19.039 23.852 19.7857 23.8957 21.5466 23.1003C23.658 22.2174 25.9021 20.9587 27.7264 18.9264C28.3206 18.2424 29.2 18.2424 29.6179 18.662C30.123 19.169 30.5409 19.6781 31.5749 20.5391C33.2684 21.953 36.6772 23.4543 39.2283 24.027L39.2501 24.359V24.3571ZM20.4017 17.8666C19.7639 17.8666 19.2371 17.3595 19.2371 16.8067C19.2153 16.2102 19.6768 15.7468 20.3581 15.7468H24.272V15.1722C24.272 14.4881 24.7771 13.9353 25.5476 13.9353C26.2507 13.9353 26.7578 14.4881 26.7578 15.1722V15.7468H30.848V15.1722C30.848 14.4881 31.353 13.9353 32.1235 13.9353C32.8267 13.9353 33.3337 14.4881 33.3337 15.1722V15.7468H35.7086C36.7643 15.7468 36.8079 15.6812 36.699 15.4148L36.9406 15.2378C37.3585 15.3929 37.9527 15.7687 38.1053 15.9437C38.6777 16.6953 38.6559 17.8646 37.0931 17.8646H33.3318V18.483C33.3318 19.1671 32.8267 19.7199 32.1215 19.7199C31.3511 19.7199 30.846 19.1671 30.846 18.483V17.8646H26.7558V18.3955C26.7558 19.0796 26.2507 19.6324 25.5456 19.6324C24.7751 19.6324 24.27 19.0796 24.27 18.3955V17.8646H20.3997L20.4017 17.8666ZM21.5664 33.4982C20.5107 34.0948 19.7184 32.6591 20.0056 31.4003L20.2254 31.2671C20.3364 31.4222 20.4671 31.5097 20.8414 31.3546C21.4574 31.0901 24.6682 28.7715 25.0861 28.0875L25.3495 28.2645C25.1079 29.2587 26.5379 29.4118 25.8328 30.4717C25.4802 31.0683 22.6439 32.8997 21.5664 33.4962V33.4982ZM30.0339 27.825V29.2388C30.0339 32.5517 29.5288 33.5002 28.1859 33.8542C25.4802 34.5601 27.1302 32.5079 25.1059 31.8895L25.2822 31.5356C26.4468 31.8219 26.7558 31.7344 27.1302 31.3586C27.657 30.8277 27.657 29.4158 27.657 28.4434V27.825H23.1054C22.6003 27.825 22.1824 27.3398 22.1824 26.8308C22.1606 26.2998 22.6003 25.7271 23.0618 25.7271H27.659V23.9832C27.5481 23.2773 28.0334 22.7026 28.8019 22.7026C29.4179 22.7026 30.0557 23.2773 30.0339 23.9832V25.7271H34.0369C34.124 25.7271 34.1478 25.6615 34.124 25.5064L34.0587 25.2638L34.3003 25.1763C35.663 26.0155 35.774 27.825 34.3439 27.825H30.0339ZM37.2476 31.7105C37.6438 32.4383 36.9624 33.19 36.279 33.367C36.1028 33.4326 35.5086 33.5877 35.3105 33.6991L35.0253 33.5877L35.158 33.4326C35.2233 33.2994 35.2233 33.1244 35.158 32.9255C34.9163 32.4622 32.5415 30.5851 31.7274 30.1655C31.0024 29.7459 31.4422 28.7079 32.278 28.4216C33.4882 28.179 36.8297 30.762 37.2476 31.7105Z" fill="#866654"/>
<path d="M22.0455 39.7139L23.4102 37.9442H22.1663C22.0317 37.9442 21.9029 37.8547 21.9029 37.7275C21.9029 37.5644 22.0416 37.4909 22.1663 37.4909H23.5231C23.7509 37.4909 23.9212 37.6658 23.9212 37.8746C23.9212 38.0218 23.84 38.0953 23.743 38.2206L22.3367 40.0321H23.4459C23.6123 40.0321 23.6202 40.0241 23.6321 40.0122C23.6519 39.9923 23.6598 39.9506 23.6737 39.9187C23.6776 39.8989 23.6816 39.877 23.6816 39.8571L23.739 39.8452C23.7806 39.8869 23.9173 40.0361 23.951 40.0818C24.0817 40.225 24.0678 40.4656 23.739 40.4656H22.2357C22.0118 40.4656 21.8336 40.3065 21.8336 40.0898C21.8336 39.9764 21.9802 39.7875 22.0455 39.7139Z" fill="#496A54"/>
<path d="M30.8449 38.9752C30.8449 39.9754 30.3161 40.4725 29.601 40.4725C28.886 40.4725 28.3829 39.9456 28.3829 39.0488V37.7484C28.3829 37.6131 28.4839 37.4839 28.6265 37.4839C28.8087 37.4839 28.89 37.6231 28.89 37.7484V39.0249C28.89 39.6652 29.1415 39.9794 29.601 39.9794C30.0605 39.9794 30.3359 39.707 30.3359 38.9752V37.7563C30.3359 37.6211 30.4369 37.4919 30.5795 37.4919C30.7617 37.4919 30.8429 37.631 30.8429 37.7563V38.9752H30.8449Z" fill="#496A54"/>
<path d="M35.1997 40.2299V37.7543C35.1997 37.6231 35.3008 37.4978 35.4434 37.4978C35.6256 37.4978 35.7068 37.6291 35.7068 37.7543V40.2299C35.7068 40.3612 35.6058 40.4586 35.4632 40.4586C35.3047 40.4586 35.1997 40.3612 35.1997 40.2299Z" fill="#496A54"/>
<path d="M47.3548 14.2063C47.4816 14.2063 47.5984 14.2997 47.5984 14.435C47.5984 14.6099 47.4717 14.6835 47.3548 14.6835H46.6972V16.9483C46.6972 17.0836 46.5962 17.185 46.4536 17.185C46.2951 17.185 46.1902 17.0836 46.1902 16.9483V14.6835H45.487C45.3603 14.6835 45.2672 14.5861 45.2672 14.4548C45.2672 14.3037 45.3603 14.2063 45.487 14.2063H47.3568H47.3548Z" fill="#496A54"/>
<path d="M53.3935 17.186C52.9261 17.174 52.2724 17.174 51.7971 17.186H51.7773C51.7614 17.186 51.7495 17.186 51.7416 17.182C51.599 17.1701 51.5178 17.0766 51.5178 16.9613V14.4558C51.5178 14.3246 51.6188 14.2033 51.7614 14.2033C51.7852 14.2033 51.803 14.2033 51.8149 14.2073H53.346C53.4728 14.2073 53.5896 14.2968 53.5896 14.424C53.5896 14.5871 53.4629 14.6606 53.346 14.6606H52.0249V15.3586H53.142C53.2687 15.3586 53.3856 15.4441 53.3856 15.5753C53.3856 15.7384 53.2588 15.808 53.142 15.808H52.0249V16.7585H53.1301C53.2806 16.7585 53.2886 16.7545 53.3004 16.7425C53.3163 16.7227 53.3242 16.6849 53.3361 16.6531C53.34 16.6332 53.344 16.6173 53.344 16.5954L53.3935 16.5835C53.4252 16.6292 53.5559 16.7664 53.5837 16.8082C53.7184 16.9434 53.6768 17.188 53.3935 17.188V17.186Z" fill="#496A54"/>
<path d="M60.1756 16.8945C60.2212 17.0079 60.1637 17.1192 60.0211 17.1709C59.8944 17.2167 59.7735 17.159 59.728 17.0476L58.8822 14.7788L58.4306 15.9938H58.8664C59.0248 15.9938 59.1021 15.9818 59.0407 15.8705L59.0981 15.8387C59.1298 15.8844 59.2566 16.0017 59.2883 16.0474C59.3338 16.117 59.423 16.4014 59.106 16.4014H58.391C58.3554 16.4014 58.3217 16.3934 58.29 16.3815L58.0424 17.0496C57.9968 17.159 57.8839 17.2206 57.7572 17.1769C57.6146 17.1272 57.5452 17.0138 57.5908 16.9045L58.5297 14.4607C58.5911 14.3135 58.7079 14.2002 58.8822 14.2002C59.0565 14.2002 59.1754 14.3175 59.2348 14.4646L60.1736 16.8925L60.1756 16.8945Z" fill="#496A54"/>
<path d="M61.4516 35.2404H57.9319V39.1478C57.9319 39.7443 57.5358 40.2077 56.8108 40.2077C56.1949 40.2077 55.6442 39.7225 55.6442 39.1259V35.2404H52.9821C52.3879 35.2404 51.9046 34.8208 51.9046 34.268C51.8829 33.6714 52.3444 33.1644 52.9386 33.1644H55.6442V32.6573C55.6442 32.1264 55.975 31.7088 56.4801 31.5974C56.4365 31.5756 56.3929 31.5099 56.3256 31.4204C56.2582 31.331 56.1057 31.0446 55.7749 31.1122L55.664 30.8915C55.7076 30.8696 55.7512 30.8478 55.7967 30.804L56.0602 30.5833L55.1154 30.8478L54.9391 30.6927L55.05 30.4719C55.1154 30.3606 55.1372 30.2075 55.0718 30.118C54.9173 29.8754 54.8301 29.6328 54.6757 29.4558C54.2577 30.3168 53.7744 31.0685 53.2238 31.7307C52.8059 32.2159 51.9482 32.2596 51.4867 31.9076V38.0461C51.4649 38.8197 51.0252 39.1498 50.4092 39.1498H44.1858C43.5045 39.1716 43.1519 38.8177 43.1519 38.0899V26.1449C43.1519 25.5921 43.5263 25.2183 44.0531 25.2183H45.2851L45.2633 23.6056H43.7679C43.2173 23.6056 42.734 23.2079 42.734 22.6114C42.734 22.0586 43.1519 21.5515 43.7461 21.5515H49.7278C50.3656 21.5515 50.4766 21.5515 50.4983 21.4859C50.5637 21.3765 50.631 21.2433 50.6528 21.0663L50.6964 20.78L50.9381 20.6925C51.049 20.9351 51.7085 21.5972 51.8175 21.7742C52.3899 22.4801 52.2354 23.6076 51.047 23.6076H49.3099V25.2203H50.5855C51.2015 25.2203 51.4867 25.6399 51.4867 26.1927V30.5197C51.5303 30.4978 51.5739 30.454 51.6412 30.3864C52.5206 29.3922 53.2911 27.8471 53.7091 26.0813C53.8636 25.5504 54.2815 25.2203 54.8084 25.2859C55.5788 25.3973 55.8423 25.8606 55.6878 26.5446C55.6006 26.8986 55.5115 27.2744 55.4026 27.6483C55.7333 27.8909 56.0621 28.1772 56.4801 28.6863C56.8108 29.0621 57.0089 29.2828 56.9851 29.5473C57.6229 28.6425 58.0844 27.5608 58.3261 26.0813C58.4132 25.5504 58.8549 25.1984 59.3818 25.2203C60.1523 25.2859 60.4375 25.7512 60.3266 26.4353C60.2612 26.9423 60.1503 27.4295 59.9958 27.9147C60.6118 28.378 61.206 28.8871 61.7983 29.4817C62.3033 29.9887 62.4796 30.2094 62.3707 30.6509C62.2835 31.0923 61.9963 31.3568 61.7111 31.4244C61.5784 31.5119 60.6772 31.8003 60.5009 31.8659L60.3028 31.7108L60.4137 31.4682C60.4791 31.3131 60.4791 31.1818 60.4137 31.1142C60.083 30.6072 59.7106 30.0981 59.2927 29.6785C59.0075 30.2751 58.6767 30.804 58.2587 31.3568C58.0825 31.5775 57.8408 31.7326 57.51 31.7983C57.7953 31.9971 57.928 32.2835 57.928 32.6593V33.1664H60.1483C60.8515 33.1664 60.9188 33.1445 60.9842 33.0789C61.0951 32.9914 61.1605 32.8581 61.1823 32.6593C61.2041 32.5718 61.2041 32.4823 61.2041 32.3729L61.4457 32.3073C61.622 32.4843 62.2816 33.234 62.3905 33.4109C62.9847 34.1169 62.852 35.2443 61.4457 35.2443L61.4516 35.2404ZM45.1326 33.6058H49.5318V31.8619C49.0267 31.8838 48.4543 31.8838 48.3889 31.8838H48.2126C48.1017 31.8838 48.0145 31.8619 47.9492 31.8181C47.7947 31.7744 47.6857 31.6849 47.6422 31.5537C47.5768 31.4423 47.555 31.333 47.555 31.2216L47.5768 27.1153H46.9608C46.9608 29.08 47.0935 31.3986 45.1346 32.5917V33.6078L45.1326 33.6058ZM45.1326 27.1153V30.7801C45.7268 29.8078 45.6832 28.5053 45.6832 27.1153H45.1326ZM45.1326 37.1175H49.5318V35.4611H45.1326V37.1175ZM46.9568 23.6036V25.2163H47.6382L47.6164 23.6036H46.9568ZM49.5298 30.2293V27.1153H48.8484V30.2512L49.5298 30.2293ZM53.2258 24.7749C52.7207 24.7749 52.3028 24.3772 52.3028 23.8701C52.3028 23.3173 52.6553 22.8758 53.1604 22.8758H55.7551C55.7551 22.4563 55.7551 22.1242 55.6898 22.0367C55.5788 21.8378 55.4263 21.7285 55.2501 21.7285C55.1629 21.7285 55.0738 21.7504 54.9866 21.7941L54.9648 21.5296C55.2065 21.3527 55.8443 20.9768 56.1968 20.8675C57.4288 20.3604 58.3083 20.9112 58.3083 21.8617C58.3083 22.4583 58.3083 22.5458 58.2865 22.8778H61.3427C61.8478 22.8778 62.2657 23.3412 62.2657 23.894C62.2657 24.401 61.8478 24.7769 61.3427 24.7769H53.2278L53.2258 24.7749Z" fill="#866654"/>
</svg>
