<svg width="256" height="44" viewBox="0 0 256 44" fill="none" xmlns="http://www.w3.org/2000/svg">
<path d="M85.9162 43.9566C69.5305 43.9566 53.0359 43.2597 36.8996 40.5468C27.0848 38.898 13.1047 35.706 5.02382 27.0447C0.95457 22.6892 -0.830527 16.5417 0.365936 11.0102C1.44083 6.06354 4.69752 2.1809 9.52816 0.096476C10.104 -0.152411 10.7758 0.096476 11.0317 0.656472C11.2877 1.21647 11.0317 1.8698 10.4559 2.11868C6.30986 3.91067 3.52025 7.23331 2.59891 11.4706C1.5496 16.3177 3.12356 21.7185 6.71295 25.5576C12.5033 31.7611 22.2222 35.8304 37.2899 38.3629C61.8014 42.4819 87.2535 41.9033 111.867 41.3495C128.816 40.9637 141.107 40.9202 153.001 40.8704C167.884 40.8144 181.94 40.7584 203.253 40.0428C214.757 39.6571 229.076 39.1717 240.215 33.6527C246.735 30.4234 251.732 24.8732 253.248 19.1674C254.24 15.4279 253.664 11.8626 251.572 8.84485C251.22 8.33464 251.354 7.6502 251.879 7.30798C252.404 6.96576 253.108 7.09642 253.459 7.60664C255.923 11.1595 256.614 15.3533 255.449 19.7212C253.773 26.0181 248.334 32.1158 241.245 35.6251C229.658 41.3682 215.057 41.8597 203.33 42.2579C181.985 42.9797 167.909 43.0295 153.008 43.0917C141.126 43.1353 128.842 43.185 111.919 43.5646C103.332 43.7575 94.6434 43.9566 85.9226 43.9566H85.9162Z" fill="#866654"/>
</svg>
